<svg width="13" height="13" viewBox="0 0 13 13" fill="none" xmlns="http://www.w3.org/2000/svg">
<path d="M9.64844 0.507812C10.334 0.507812 11.2734 0.888672 11.7178 1.33301L12.0986 1.71387C12.5684 2.20898 12.8604 3.03418 12.9111 3.74512V4.21484C12.8096 5.6875 11.7812 6.80469 10.5879 7.21094C9.90234 7.45215 9.68652 7.3125 9.4834 7.46484L6.94434 9.33105C6.83008 9.41992 6.79199 9.43262 6.72852 9.4834C6.55078 10.918 5.29395 11.7178 4.0498 11.7178C3.14844 11.7178 2.27246 11.2988 1.80273 10.3975C1.6377 10.0801 1.625 9.96582 1.56152 9.81348L0.304688 9.30566C0.203125 9.26758 0.0761719 9.19141 0.0507812 9.03906L0.0253906 8.88672V6.18262C0.0380859 5.91602 0.19043 5.77637 0.393555 5.77637C0.444336 5.77637 0.495117 5.78906 0.558594 5.80176C1.33301 6.11914 2.12012 6.41113 2.88184 6.74121L3.08496 6.65234C3.50391 6.47461 3.74512 6.44922 4.20215 6.44922C4.26562 6.36035 4.35449 6.2334 4.40527 6.15723L5.53516 4.54492C5.62402 4.43066 5.92871 3.99902 6.03027 3.82129C6.10645 2.69141 6.46191 2.10742 7.16016 1.39648C7.70605 0.875977 8.6709 0.507812 9.64844 0.507812ZM4.13867 7.00781C3.70703 7.00781 3.58008 7.05859 3.07227 7.27441C3.00879 7.2998 2.94531 7.3125 2.89453 7.3125C2.74219 7.3125 2.58984 7.22363 2.46289 7.17285C1.84082 6.91895 1.20605 6.66504 0.583984 6.41113V8.81055L1.84082 9.31836C2.1582 9.4707 2.08203 9.75 2.29785 10.1436C2.65332 10.8418 3.35156 11.1592 4.0625 11.1592C5.02734 11.1592 5.99219 10.5625 6.15723 9.4834L6.18262 9.34375C6.2207 9.10254 6.38574 9.03906 6.60156 8.87402L9.15332 7.00781C9.52148 6.74121 9.82617 6.88086 10.4102 6.67773C11.4004 6.33496 12.2637 5.4082 12.3525 4.17676V3.77051C12.3145 3.19922 12.0605 2.53906 11.6924 2.10742L11.3242 1.73926C10.8799 1.33301 10.1436 1.06641 9.41992 1.06641C9.03906 1.06641 8.64551 1.14258 8.30273 1.30762C7.22363 1.84082 6.63965 2.7041 6.53809 4.0498C6.46191 4.18945 6.05566 4.77344 5.97949 4.875L4.8623 6.47461C4.67188 6.67773 4.67188 6.96973 4.35449 7.00781H4.13867ZM4.02441 10.6006C3.74512 10.6006 3.45312 10.4609 3.28809 10.3467C3.14844 10.2451 2.86914 10.0166 2.81836 9.83887C3.12305 9.91504 3.54199 10.207 4.01172 10.207C4.26562 10.207 4.54492 10.1055 4.82422 9.85156C5.06543 9.62305 5.19238 9.29297 5.19238 8.96289C5.1416 8.15039 4.55762 7.80762 3.87207 7.61719C3.89746 7.5791 3.88477 7.56641 3.94824 7.56641H4.08789C5.01465 7.56641 5.62402 8.29004 5.62402 9.07715C5.62402 9.83887 5.09082 10.6006 4.02441 10.6006ZM7.87109 3.87207C7.87109 2.94531 8.62012 2.18359 9.54688 2.18359C10.4736 2.18359 11.2354 2.94531 11.2354 3.87207C11.2354 4.79883 10.4736 5.54785 9.54688 5.54785C8.62012 5.54785 7.87109 4.79883 7.87109 3.87207ZM8.42969 3.87207C8.42969 4.49414 8.9248 4.98926 9.54688 4.98926C10.1689 4.98926 10.6768 4.49414 10.6768 3.87207C10.6768 3.25 10.1689 2.74219 9.54688 2.74219C8.9248 2.74219 8.42969 3.25 8.42969 3.87207Z" fill="white"/>
</svg>
